<?xml version="1.0" encoding="UTF-8" standalone="no"?>
<!DOCTYPE svg PUBLIC "-//W3C//DTD SVG 1.1//EN"
 "http://www.w3.org/Graphics/SVG/1.1/DTD/svg11.dtd">
<!-- Generated by graphviz version 2.40.1 (20161225.0304)
 -->
<!-- Title: dependencies Pages: 1 -->
<svg width="557pt" height="211pt"
 viewBox="0.00 0.00 557.00 211.00" xmlns="http://www.w3.org/2000/svg" xmlns:xlink="http://www.w3.org/1999/xlink">
<g id="graph0" class="graph" transform="scale(1 1) rotate(0) translate(4 207)">
<title>dependencies</title>
<polygon fill="#ffffff" stroke="transparent" points="-4,4 -4,-207 553,-207 553,4 -4,4"/>
<text text-anchor="start" x="253.5091" y="-42.4" font-family="sans-serif" font-weight="bold" font-size="14.00" fill="#000000">Legend</text>
<polygon fill="#ffffb3" stroke="transparent" points="40.5,-10 40.5,-30 60.5,-30 60.5,-10 40.5,-10"/>
<text text-anchor="start" x="64.129" y="-15.4" font-family="sans-serif" font-size="14.00" fill="#000000"> &#160;Declarations</text>
<polygon fill="#8dd3c7" stroke="transparent" points="153.5,-10 153.5,-30 173.5,-30 173.5,-10 153.5,-10"/>
<text text-anchor="start" x="177.2251" y="-15.4" font-family="sans-serif" font-size="14.00" fill="#000000"> &#160;Module</text>
<polygon fill="#80b1d3" stroke="transparent" points="239.5,-10 239.5,-30 259.5,-30 259.5,-10 239.5,-10"/>
<text text-anchor="start" x="263.2812" y="-15.4" font-family="sans-serif" font-size="14.00" fill="#000000"> &#160;Bootstrap</text>
<polygon fill="#fdb462" stroke="transparent" points="336.5,-10 336.5,-30 356.5,-30 356.5,-10 336.5,-10"/>
<text text-anchor="start" x="360.1732" y="-15.4" font-family="sans-serif" font-size="14.00" fill="#000000"> &#160;Providers</text>
<polygon fill="#fb8072" stroke="transparent" points="432.5,-10 432.5,-30 452.5,-30 452.5,-10 432.5,-10"/>
<text text-anchor="start" x="456.2258" y="-15.4" font-family="sans-serif" font-size="14.00" fill="#000000"> &#160;Exports</text>
<g id="clust1" class="cluster">
<title>cluster_HomeModule</title>
<polygon fill="none" stroke="#000000" stroke-dasharray="1,5" points="8,-70 8,-195 541,-195 541,-70 8,-70"/>
</g>
<g id="clust2" class="cluster">
<title>cluster_HomeModule_declarations</title>
<polygon fill="none" stroke="#000000" points="401,-78 401,-130 533,-130 533,-78 401,-78"/>
</g>
<g id="clust4" class="cluster">
<title>cluster_HomeModule_imports</title>
<polygon fill="none" stroke="#000000" points="16,-78 16,-130 393,-130 393,-78 16,-78"/>
</g>
<!-- HomeComponent -->
<g id="node1" class="node">
<title>HomeComponent</title>
<polygon fill="#ffffb3" stroke="#000000" points="524.5451,-122 409.4549,-122 409.4549,-86 524.5451,-86 524.5451,-122"/>
<text text-anchor="middle" x="467" y="-99.8" font-family="Times,serif" font-size="14.00" fill="#000000">HomeComponent</text>
</g>
<!-- HomeModule -->
<g id="node2" class="node">
<title>HomeModule</title>
<polygon fill="#8dd3c7" stroke="#000000" points="322.7619,-187 319.7619,-191 298.7619,-191 295.7619,-187 229.2381,-187 229.2381,-151 322.7619,-151 322.7619,-187"/>
<text text-anchor="middle" x="276" y="-164.8" font-family="Times,serif" font-size="14.00" fill="#000000">HomeModule</text>
</g>
<!-- HomeComponent&#45;&gt;HomeModule -->
<g id="edge1" class="edge">
<title>HomeComponent&#45;&gt;HomeModule</title>
<path fill="none" stroke="#000000" d="M467,-122.1061C467,-141.3391 467,-169 467,-169 467,-169 333.2135,-169 333.2135,-169"/>
<polygon fill="#000000" stroke="#000000" points="333.2135,-165.5001 323.2135,-169 333.2135,-172.5001 333.2135,-165.5001"/>
</g>
<!-- CoreModule -->
<g id="node3" class="node">
<title>CoreModule</title>
<polygon fill="#8dd3c7" stroke="#000000" points="385.2619,-122 382.2619,-126 361.2619,-126 358.2619,-122 298.7381,-122 298.7381,-86 385.2619,-86 385.2619,-122"/>
<text text-anchor="middle" x="342" y="-99.8" font-family="Times,serif" font-size="14.00" fill="#000000">CoreModule</text>
</g>
<!-- CoreModule&#45;&gt;HomeModule -->
<g id="edge2" class="edge">
<title>CoreModule&#45;&gt;HomeModule</title>
<path fill="none" stroke="#000000" d="M310.75,-122.1061C310.75,-122.1061 310.75,-140.991 310.75,-140.991"/>
<polygon fill="#000000" stroke="#000000" points="307.2501,-140.9909 310.75,-150.991 314.2501,-140.991 307.2501,-140.9909"/>
</g>
<!-- HomeRoutingModule -->
<g id="node4" class="node">
<title>HomeRoutingModule</title>
<polygon fill="#8dd3c7" stroke="#000000" points="280.3795,-122 277.3795,-126 256.3795,-126 253.3795,-122 141.6205,-122 141.6205,-86 280.3795,-86 280.3795,-122"/>
<text text-anchor="middle" x="211" y="-99.8" font-family="Times,serif" font-size="14.00" fill="#000000">HomeRoutingModule</text>
</g>
<!-- HomeRoutingModule&#45;&gt;HomeModule -->
<g id="edge3" class="edge">
<title>HomeRoutingModule&#45;&gt;HomeModule</title>
<path fill="none" stroke="#000000" d="M254.7795,-122.1061C254.7795,-122.1061 254.7795,-140.991 254.7795,-140.991"/>
<polygon fill="#000000" stroke="#000000" points="251.2795,-140.9909 254.7795,-150.991 258.2795,-140.991 251.2795,-140.9909"/>
</g>
<!-- LayoutModule -->
<g id="node5" class="node">
<title>LayoutModule</title>
<polygon fill="#8dd3c7" stroke="#000000" points="123.7078,-122 120.7078,-126 99.7078,-126 96.7078,-122 24.2922,-122 24.2922,-86 123.7078,-86 123.7078,-122"/>
<text text-anchor="middle" x="74" y="-99.8" font-family="Times,serif" font-size="14.00" fill="#000000">LayoutModule</text>
</g>
<!-- LayoutModule&#45;&gt;HomeModule -->
<g id="edge4" class="edge">
<title>LayoutModule&#45;&gt;HomeModule</title>
<path fill="none" stroke="#000000" d="M74,-122.1061C74,-141.3391 74,-169 74,-169 74,-169 219.1494,-169 219.1494,-169"/>
<polygon fill="#000000" stroke="#000000" points="219.1494,-172.5001 229.1494,-169 219.1494,-165.5001 219.1494,-172.5001"/>
</g>
</g>
</svg>
