<?xml version="1.0" encoding="UTF-8" standalone="no"?>
<!DOCTYPE svg PUBLIC "-//W3C//DTD SVG 1.1//EN"
 "http://www.w3.org/Graphics/SVG/1.1/DTD/svg11.dtd">
<!-- Generated by graphviz version 2.40.1 (20161225.0304)
 -->
<!-- Title: dependencies Pages: 1 -->
<svg width="538pt" height="211pt"
 viewBox="0.00 0.00 538.00 211.00" xmlns="http://www.w3.org/2000/svg" xmlns:xlink="http://www.w3.org/1999/xlink">
<g id="graph0" class="graph" transform="scale(1 1) rotate(0) translate(4 207)">
<title>dependencies</title>
<polygon fill="#ffffff" stroke="transparent" points="-4,4 -4,-207 534,-207 534,4 -4,4"/>
<text text-anchor="start" x="244.0091" y="-42.4" font-family="sans-serif" font-weight="bold" font-size="14.00" fill="#000000">Legend</text>
<polygon fill="#ffffb3" stroke="transparent" points="31,-10 31,-30 51,-30 51,-10 31,-10"/>
<text text-anchor="start" x="54.629" y="-15.4" font-family="sans-serif" font-size="14.00" fill="#000000"> &#160;Declarations</text>
<polygon fill="#8dd3c7" stroke="transparent" points="144,-10 144,-30 164,-30 164,-10 144,-10"/>
<text text-anchor="start" x="167.7251" y="-15.4" font-family="sans-serif" font-size="14.00" fill="#000000"> &#160;Module</text>
<polygon fill="#80b1d3" stroke="transparent" points="230,-10 230,-30 250,-30 250,-10 230,-10"/>
<text text-anchor="start" x="253.7812" y="-15.4" font-family="sans-serif" font-size="14.00" fill="#000000"> &#160;Bootstrap</text>
<polygon fill="#fdb462" stroke="transparent" points="327,-10 327,-30 347,-30 347,-10 327,-10"/>
<text text-anchor="start" x="350.6732" y="-15.4" font-family="sans-serif" font-size="14.00" fill="#000000"> &#160;Providers</text>
<polygon fill="#fb8072" stroke="transparent" points="423,-10 423,-30 443,-30 443,-10 423,-10"/>
<text text-anchor="start" x="446.7258" y="-15.4" font-family="sans-serif" font-size="14.00" fill="#000000"> &#160;Exports</text>
<g id="clust1" class="cluster">
<title>cluster_LayoutModule</title>
<polygon fill="none" stroke="#000000" stroke-dasharray="1,5" points="8,-70 8,-195 522,-195 522,-70 8,-70"/>
</g>
<g id="clust2" class="cluster">
<title>cluster_LayoutModule_declarations</title>
<polygon fill="none" stroke="#000000" points="16,-78 16,-130 514,-130 514,-78 16,-78"/>
</g>
<!-- AuthLayoutComponent -->
<g id="node1" class="node">
<title>AuthLayoutComponent</title>
<polygon fill="#ffffb3" stroke="#000000" points="506.4874,-122 357.5126,-122 357.5126,-86 506.4874,-86 506.4874,-122"/>
<text text-anchor="middle" x="432" y="-99.8" font-family="Times,serif" font-size="14.00" fill="#000000">AuthLayoutComponent</text>
</g>
<!-- LayoutModule -->
<g id="node4" class="node">
<title>LayoutModule</title>
<polygon fill="#8dd3c7" stroke="#000000" points="309.7078,-187 306.7078,-191 285.7078,-191 282.7078,-187 210.2922,-187 210.2922,-151 309.7078,-151 309.7078,-187"/>
<text text-anchor="middle" x="260" y="-164.8" font-family="Times,serif" font-size="14.00" fill="#000000">LayoutModule</text>
</g>
<!-- AuthLayoutComponent&#45;&gt;LayoutModule -->
<g id="edge1" class="edge">
<title>AuthLayoutComponent&#45;&gt;LayoutModule</title>
<path fill="none" stroke="#000000" d="M432,-122.1061C432,-141.3391 432,-169 432,-169 432,-169 319.7495,-169 319.7495,-169"/>
<polygon fill="#000000" stroke="#000000" points="319.7496,-165.5001 309.7495,-169 319.7495,-172.5001 319.7496,-165.5001"/>
</g>
<!-- BackToLoginComponent -->
<g id="node2" class="node">
<title>BackToLoginComponent</title>
<polygon fill="#ffffb3" stroke="#000000" points="339.594,-122 180.406,-122 180.406,-86 339.594,-86 339.594,-122"/>
<text text-anchor="middle" x="260" y="-99.8" font-family="Times,serif" font-size="14.00" fill="#000000">BackToLoginComponent</text>
</g>
<!-- BackToLoginComponent&#45;&gt;LayoutModule -->
<g id="edge2" class="edge">
<title>BackToLoginComponent&#45;&gt;LayoutModule</title>
<path fill="none" stroke="#000000" d="M260,-122.1061C260,-122.1061 260,-140.991 260,-140.991"/>
<polygon fill="#000000" stroke="#000000" points="256.5001,-140.9909 260,-150.991 263.5001,-140.991 256.5001,-140.9909"/>
</g>
<!-- ErrorPageComponent -->
<g id="node3" class="node">
<title>ErrorPageComponent</title>
<polygon fill="#ffffb3" stroke="#000000" points="162.0786,-122 23.9214,-122 23.9214,-86 162.0786,-86 162.0786,-122"/>
<text text-anchor="middle" x="93" y="-99.8" font-family="Times,serif" font-size="14.00" fill="#000000">ErrorPageComponent</text>
</g>
<!-- ErrorPageComponent&#45;&gt;LayoutModule -->
<g id="edge3" class="edge">
<title>ErrorPageComponent&#45;&gt;LayoutModule</title>
<path fill="none" stroke="#000000" d="M93,-122.1061C93,-141.3391 93,-169 93,-169 93,-169 200.3466,-169 200.3466,-169"/>
<polygon fill="#000000" stroke="#000000" points="200.3467,-172.5001 210.3466,-169 200.3466,-165.5001 200.3467,-172.5001"/>
</g>
</g>
</svg>
