<?xml version="1.0" encoding="UTF-8" standalone="no"?>
<!DOCTYPE svg PUBLIC "-//W3C//DTD SVG 1.1//EN"
 "http://www.w3.org/Graphics/SVG/1.1/DTD/svg11.dtd">
<!-- Generated by graphviz version 2.40.1 (20161225.0304)
 -->
<!-- Title: dependencies Pages: 1 -->
<svg width="3173pt" height="428pt"
 viewBox="0.00 0.00 3173.00 428.00" xmlns="http://www.w3.org/2000/svg" xmlns:xlink="http://www.w3.org/1999/xlink">
<g id="graph0" class="graph" transform="scale(1 1) rotate(0) translate(4 424)">
<title>dependencies</title>
<polygon fill="#ffffff" stroke="transparent" points="-4,4 -4,-424 3169,-424 3169,4 -4,4"/>
<text text-anchor="start" x="1561.5091" y="-42.4" font-family="sans-serif" font-weight="bold" font-size="14.00" fill="#000000">Legend</text>
<polygon fill="#ffffb3" stroke="transparent" points="1348.5,-10 1348.5,-30 1368.5,-30 1368.5,-10 1348.5,-10"/>
<text text-anchor="start" x="1372.129" y="-15.4" font-family="sans-serif" font-size="14.00" fill="#000000"> &#160;Declarations</text>
<polygon fill="#8dd3c7" stroke="transparent" points="1461.5,-10 1461.5,-30 1481.5,-30 1481.5,-10 1461.5,-10"/>
<text text-anchor="start" x="1485.2251" y="-15.4" font-family="sans-serif" font-size="14.00" fill="#000000"> &#160;Module</text>
<polygon fill="#80b1d3" stroke="transparent" points="1547.5,-10 1547.5,-30 1567.5,-30 1567.5,-10 1547.5,-10"/>
<text text-anchor="start" x="1571.2812" y="-15.4" font-family="sans-serif" font-size="14.00" fill="#000000"> &#160;Bootstrap</text>
<polygon fill="#fdb462" stroke="transparent" points="1644.5,-10 1644.5,-30 1664.5,-30 1664.5,-10 1644.5,-10"/>
<text text-anchor="start" x="1668.1732" y="-15.4" font-family="sans-serif" font-size="14.00" fill="#000000"> &#160;Providers</text>
<polygon fill="#fb8072" stroke="transparent" points="1740.5,-10 1740.5,-30 1760.5,-30 1760.5,-10 1740.5,-10"/>
<text text-anchor="start" x="1764.2258" y="-15.4" font-family="sans-serif" font-size="14.00" fill="#000000"> &#160;Exports</text>
<g id="clust1" class="cluster">
<title>cluster_AppModule</title>
<polygon fill="none" stroke="#000000" stroke-dasharray="1,5" points="841,-70 841,-412 2299,-412 2299,-70 841,-70"/>
</g>
<g id="clust2" class="cluster">
<title>cluster_AppModule_declarations</title>
<polygon fill="none" stroke="#000000" points="2169,-222 2169,-274 2291,-274 2291,-222 2169,-222"/>
</g>
<g id="clust4" class="cluster">
<title>cluster_AppModule_imports</title>
<polygon fill="none" stroke="#000000" points="1912,-78 1912,-274 2161,-274 2161,-78 1912,-78"/>
</g>
<g id="clust6" class="cluster">
<title>cluster_AppModule_bootstrap</title>
<polygon fill="none" stroke="#000000" points="1815,-352 1815,-404 1939,-404 1939,-352 1815,-352"/>
</g>
<g id="clust7" class="cluster">
<title>cluster_AppModule_providers</title>
<polygon fill="none" stroke="#000000" points="849,-222 849,-274 1904,-274 1904,-222 849,-222"/>
</g>
<g id="clust14" class="cluster">
<title>cluster_AuthModule</title>
<polygon fill="none" stroke="#000000" stroke-dasharray="1,5" points="329,-146 329,-214 833,-214 833,-146 329,-146"/>
</g>
<g id="clust15" class="cluster">
<title>cluster_AuthModule_declarations</title>
<polygon fill="none" stroke="#000000" points="493,-154 493,-206 825,-206 825,-154 493,-154"/>
</g>
<g id="clust18" class="cluster">
<title>cluster_AuthModule_imports</title>
<polygon fill="none" stroke="#000000" points="337,-154 337,-206 485,-206 485,-154 337,-154"/>
</g>
<g id="clust28" class="cluster">
<title>cluster_CoreModule</title>
<polygon fill="none" stroke="#000000" stroke-dasharray="1,5" points="2801,-146 2801,-214 3157,-214 3157,-146 2801,-146"/>
</g>
<g id="clust29" class="cluster">
<title>cluster_CoreModule_declarations</title>
<polygon fill="none" stroke="#000000" points="2985,-154 2985,-206 3149,-206 3149,-154 2985,-154"/>
</g>
<g id="clust32" class="cluster">
<title>cluster_CoreModule_exports</title>
<polygon fill="none" stroke="#000000" points="2809,-154 2809,-206 2977,-206 2977,-154 2809,-154"/>
</g>
<g id="clust35" class="cluster">
<title>cluster_HomeModule</title>
<polygon fill="none" stroke="#000000" stroke-dasharray="1,5" points="2307,-146 2307,-274 2771,-274 2771,-146 2307,-146"/>
</g>
<g id="clust36" class="cluster">
<title>cluster_HomeModule_declarations</title>
<polygon fill="none" stroke="#000000" points="2477,-154 2477,-206 2763,-206 2763,-154 2477,-154"/>
</g>
<g id="clust39" class="cluster">
<title>cluster_HomeModule_imports</title>
<polygon fill="none" stroke="#000000" points="2315,-154 2315,-206 2469,-206 2469,-154 2315,-154"/>
</g>
<g id="clust49" class="cluster">
<title>cluster_LayoutModule</title>
<polygon fill="none" stroke="#000000" stroke-dasharray="1,5" points="8,-70 8,-138 833,-138 833,-70 8,-70"/>
</g>
<g id="clust50" class="cluster">
<title>cluster_LayoutModule_declarations</title>
<polygon fill="none" stroke="#000000" points="16,-78 16,-130 825,-130 825,-78 16,-78"/>
</g>
<!-- AppComponent -->
<g id="node1" class="node">
<title>AppComponent</title>
<polygon fill="#ffffb3" stroke="#000000" points="2282.9399,-266 2177.0601,-266 2177.0601,-230 2282.9399,-230 2282.9399,-266"/>
<text text-anchor="middle" x="2230" y="-243.8" font-family="Times,serif" font-size="14.00" fill="#000000">AppComponent</text>
</g>
<!-- AppModule -->
<g id="node2" class="node">
<title>AppModule</title>
<polygon fill="#8dd3c7" stroke="#000000" points="1918.6571,-331 1915.6571,-335 1894.6571,-335 1891.6571,-331 1835.3429,-331 1835.3429,-295 1918.6571,-295 1918.6571,-331"/>
<text text-anchor="middle" x="1877" y="-308.8" font-family="Times,serif" font-size="14.00" fill="#000000">AppModule</text>
</g>
<!-- AppComponent&#45;&gt;AppModule -->
<g id="edge1" class="edge">
<title>AppComponent&#45;&gt;AppModule</title>
<path fill="none" stroke="#000000" d="M2230,-266.2921C2230,-288.2057 2230,-322 2230,-322 2230,-322 1928.8799,-322 1928.8799,-322"/>
<polygon fill="#000000" stroke="#000000" points="1928.88,-318.5001 1918.8799,-322 1928.8799,-325.5001 1928.88,-318.5001"/>
</g>
<!-- AppComponent  -->
<g id="node7" class="node">
<title>AppComponent </title>
<polygon fill="#80b1d3" stroke="#000000" points="1931.439,-396 1822.561,-396 1822.561,-360 1931.439,-360 1931.439,-396"/>
<text text-anchor="middle" x="1877" y="-373.8" font-family="Times,serif" font-size="14.00" fill="#000000">AppComponent </text>
</g>
<!-- AppModule&#45;&gt;AppComponent  -->
<g id="edge6" class="edge">
<title>AppModule&#45;&gt;AppComponent </title>
<path fill="none" stroke="#000000" stroke-dasharray="1,5" d="M1877,-331.1061C1877,-331.1061 1877,-349.991 1877,-349.991"/>
<polygon fill="#000000" stroke="#000000" points="1873.5001,-349.9909 1877,-359.991 1880.5001,-349.991 1873.5001,-349.9909"/>
</g>
<!-- AppRoutingModule -->
<g id="node3" class="node">
<title>AppRoutingModule</title>
<polygon fill="#8dd3c7" stroke="#000000" points="2048.2744,-122 2045.2744,-126 2024.2744,-126 2021.2744,-122 1919.7256,-122 1919.7256,-86 2048.2744,-86 2048.2744,-122"/>
<text text-anchor="middle" x="1984" y="-99.8" font-family="Times,serif" font-size="14.00" fill="#000000">AppRoutingModule</text>
</g>
<!-- AppRoutingModule&#45;&gt;AppModule -->
<g id="edge2" class="edge">
<title>AppRoutingModule&#45;&gt;AppModule</title>
<path fill="none" stroke="#000000" d="M1919.5401,-110C1909.125,-110 1901.6774,-110 1901.6774,-110 1901.6774,-110 1901.6774,-284.9851 1901.6774,-284.9851"/>
<polygon fill="#000000" stroke="#000000" points="1898.1775,-284.9851 1901.6774,-294.9851 1905.1775,-284.9851 1898.1775,-284.9851"/>
</g>
<!-- AuthModule -->
<g id="node4" class="node">
<title>AuthModule</title>
<polygon fill="#8dd3c7" stroke="#000000" points="2007.5482,-266 2004.5482,-270 1983.5482,-270 1980.5482,-266 1920.4518,-266 1920.4518,-230 2007.5482,-230 2007.5482,-266"/>
<text text-anchor="middle" x="1964" y="-243.8" font-family="Times,serif" font-size="14.00" fill="#000000">AuthModule</text>
</g>
<!-- AuthModule&#45;&gt;AppModule -->
<g id="edge3" class="edge">
<title>AuthModule&#45;&gt;AppModule</title>
<path fill="none" stroke="#000000" d="M1925.848,-266.027C1925.848,-282.3976 1925.848,-304 1925.848,-304 1925.848,-304 1925.1688,-304 1925.1688,-304"/>
<polygon fill="#000000" stroke="#000000" points="1929.056,-300.5002 1919.0559,-304 1929.0558,-307.5002 1929.056,-300.5002"/>
</g>
<!-- CoreModule -->
<g id="node5" class="node">
<title>CoreModule</title>
<polygon fill="#8dd3c7" stroke="#000000" points="2153.2619,-122 2150.2619,-126 2129.2619,-126 2126.2619,-122 2066.7381,-122 2066.7381,-86 2153.2619,-86 2153.2619,-122"/>
<text text-anchor="middle" x="2110" y="-99.8" font-family="Times,serif" font-size="14.00" fill="#000000">CoreModule</text>
</g>
<!-- CoreModule&#45;&gt;AppModule -->
<g id="edge4" class="edge">
<title>CoreModule&#45;&gt;AppModule</title>
<path fill="none" stroke="#000000" d="M2131.6904,-122.1818C2131.6904,-173.0302 2131.6904,-313 2131.6904,-313 2131.6904,-313 1928.7717,-313 1928.7717,-313"/>
<polygon fill="#000000" stroke="#000000" points="1928.7718,-309.5001 1918.7717,-313 1928.7717,-316.5001 1928.7718,-309.5001"/>
</g>
<!-- CoreModule&#45;&gt;AuthModule -->
<g id="edge15" class="edge">
<title>CoreModule&#45;&gt;AuthModule</title>
<path fill="none" stroke="#000000" d="M2110,-122.2377C2110,-160.9861 2110,-248 2110,-248 2110,-248 2017.8048,-248 2017.8048,-248"/>
<polygon fill="#000000" stroke="#000000" points="2017.8048,-244.5001 2007.8048,-248 2017.8048,-251.5001 2017.8048,-244.5001"/>
</g>
<!-- LayoutModule -->
<g id="node6" class="node">
<title>LayoutModule</title>
<polygon fill="#8dd3c7" stroke="#000000" points="2019.7078,-198 2016.7078,-202 1995.7078,-202 1992.7078,-198 1920.2922,-198 1920.2922,-162 2019.7078,-162 2019.7078,-198"/>
<text text-anchor="middle" x="1970" y="-175.8" font-family="Times,serif" font-size="14.00" fill="#000000">LayoutModule</text>
</g>
<!-- CoreModule&#45;&gt;LayoutModule -->
<g id="edge29" class="edge">
<title>CoreModule&#45;&gt;LayoutModule</title>
<path fill="none" stroke="#000000" d="M2088.3096,-122.0267C2088.3096,-142.7672 2088.3096,-174 2088.3096,-174 2088.3096,-174 2029.831,-174 2029.831,-174"/>
<polygon fill="#000000" stroke="#000000" points="2029.8311,-170.5001 2019.831,-174 2029.831,-177.5001 2029.8311,-170.5001"/>
</g>
<!-- LangSwitchComponent  -->
<g id="node17" class="node">
<title>LangSwitchComponent </title>
<polygon fill="#fb8072" stroke="#000000" points="2969.4854,-198 2816.5146,-198 2816.5146,-162 2969.4854,-162 2969.4854,-198"/>
<text text-anchor="middle" x="2893" y="-175.8" font-family="Times,serif" font-size="14.00" fill="#000000">LangSwitchComponent </text>
</g>
<!-- CoreModule&#45;&gt;LangSwitchComponent  -->
<g id="edge18" class="edge">
<title>CoreModule&#45;&gt;LangSwitchComponent </title>
<path fill="none" stroke="#000000" stroke-dasharray="5,2" d="M2153.4936,-104C2318.0156,-104 2893,-104 2893,-104 2893,-104 2893,-151.9891 2893,-151.9891"/>
<polygon fill="#000000" stroke="#000000" points="2889.5001,-151.989 2893,-161.9891 2896.5001,-151.9891 2889.5001,-151.989"/>
</g>
<!-- HomeModule -->
<g id="node20" class="node">
<title>HomeModule</title>
<polygon fill="#8dd3c7" stroke="#000000" points="2599.7619,-266 2596.7619,-270 2575.7619,-270 2572.7619,-266 2506.2381,-266 2506.2381,-230 2599.7619,-230 2599.7619,-266"/>
<text text-anchor="middle" x="2553" y="-243.8" font-family="Times,serif" font-size="14.00" fill="#000000">HomeModule</text>
</g>
<!-- CoreModule&#45;&gt;HomeModule -->
<g id="edge21" class="edge">
<title>CoreModule&#45;&gt;HomeModule</title>
<path fill="none" stroke="#000000" d="M2153.7328,-113C2212.3942,-113 2309.28,-113 2309.28,-113 2309.28,-113 2309.28,-248 2309.28,-248 2309.28,-248 2496.0083,-248 2496.0083,-248"/>
<polygon fill="#000000" stroke="#000000" points="2496.0084,-251.5001 2506.0083,-248 2496.0083,-244.5001 2496.0084,-251.5001"/>
</g>
<!-- LayoutModule&#45;&gt;AppModule -->
<g id="edge5" class="edge">
<title>LayoutModule&#45;&gt;AppModule</title>
<path fill="none" stroke="#000000" d="M1920.3662,-189C1912.7678,-189 1907.3943,-189 1907.3943,-189 1907.3943,-189 1907.3943,-284.9693 1907.3943,-284.9693"/>
<polygon fill="#000000" stroke="#000000" points="1903.8944,-284.9693 1907.3943,-294.9693 1910.8944,-284.9694 1903.8944,-284.9693"/>
</g>
<!-- LayoutModule&#45;&gt;AuthModule -->
<g id="edge16" class="edge">
<title>LayoutModule&#45;&gt;AuthModule</title>
<path fill="none" stroke="#000000" d="M1985.9292,-198.2228C1985.9292,-198.2228 1985.9292,-219.7269 1985.9292,-219.7269"/>
<polygon fill="#000000" stroke="#000000" points="1982.4293,-219.7269 1985.9292,-229.7269 1989.4293,-219.727 1982.4293,-219.7269"/>
</g>
<!-- LayoutModule&#45;&gt;HomeModule -->
<g id="edge23" class="edge">
<title>LayoutModule&#45;&gt;HomeModule</title>
<path fill="none" stroke="#000000" d="M2019.8672,-186C2111.1895,-186 2295.9998,-186 2295.9998,-186 2295.9998,-186 2295.9998,-257 2295.9998,-257 2295.9998,-257 2496.161,-257 2496.161,-257"/>
<polygon fill="#000000" stroke="#000000" points="2496.1611,-260.5001 2506.161,-257 2496.161,-253.5001 2496.1611,-260.5001"/>
</g>
<!-- AuthTokenInterceptor -->
<g id="node8" class="node">
<title>AuthTokenInterceptor</title>
<ellipse fill="#fdb462" stroke="#000000" cx="1387" cy="-248" rx="97.2548" ry="18"/>
<text text-anchor="middle" x="1387" y="-243.8" font-family="Times,serif" font-size="14.00" fill="#000000">AuthTokenInterceptor</text>
</g>
<!-- AuthTokenInterceptor&#45;&gt;AppModule -->
<g id="edge7" class="edge">
<title>AuthTokenInterceptor&#45;&gt;AppModule</title>
<path fill="none" stroke="#000000" d="M1387,-266.2667C1387,-284.5552 1387,-310 1387,-310 1387,-310 1825.2229,-310 1825.2229,-310"/>
<polygon fill="#000000" stroke="#000000" points="1825.2229,-313.5001 1835.2229,-310 1825.2228,-306.5001 1825.2229,-313.5001"/>
</g>
<!-- JsonHeaderInterceptor -->
<g id="node9" class="node">
<title>JsonHeaderInterceptor</title>
<ellipse fill="#fdb462" stroke="#000000" cx="1173" cy="-248" rx="98.3734" ry="18"/>
<text text-anchor="middle" x="1173" y="-243.8" font-family="Times,serif" font-size="14.00" fill="#000000">JsonHeaderInterceptor</text>
</g>
<!-- JsonHeaderInterceptor&#45;&gt;AppModule -->
<g id="edge8" class="edge">
<title>JsonHeaderInterceptor&#45;&gt;AppModule</title>
<path fill="none" stroke="#000000" d="M1173,-266.1289C1173,-286.5724 1173,-317 1173,-317 1173,-317 1825.3302,-317 1825.3302,-317"/>
<polygon fill="#000000" stroke="#000000" points="1825.3303,-320.5001 1835.3302,-317 1825.3302,-313.5001 1825.3303,-320.5001"/>
</g>
<!-- LogRequestInterceptor -->
<g id="node10" class="node">
<title>LogRequestInterceptor</title>
<ellipse fill="#fdb462" stroke="#000000" cx="957" cy="-248" rx="100.1201" ry="18"/>
<text text-anchor="middle" x="957" y="-243.8" font-family="Times,serif" font-size="14.00" fill="#000000">LogRequestInterceptor</text>
</g>
<!-- LogRequestInterceptor&#45;&gt;AppModule -->
<g id="edge9" class="edge">
<title>LogRequestInterceptor&#45;&gt;AppModule</title>
<path fill="none" stroke="#000000" d="M957,-266.0109C957,-288.4852 957,-324 957,-324 957,-324 1825.0789,-324 1825.0789,-324"/>
<polygon fill="#000000" stroke="#000000" points="1825.0789,-327.5001 1835.0789,-324 1825.0788,-320.5001 1825.0789,-327.5001"/>
</g>
<!-- LogResponseInterceptor -->
<g id="node11" class="node">
<title>LogResponseInterceptor</title>
<ellipse fill="#fdb462" stroke="#000000" cx="1790" cy="-248" rx="105.9208" ry="18"/>
<text text-anchor="middle" x="1790" y="-243.8" font-family="Times,serif" font-size="14.00" fill="#000000">LogResponseInterceptor</text>
</g>
<!-- LogResponseInterceptor&#45;&gt;AppModule -->
<g id="edge10" class="edge">
<title>LogResponseInterceptor&#45;&gt;AppModule</title>
<path fill="none" stroke="#000000" d="M1865.5661,-260.8419C1865.5661,-260.8419 1865.5661,-284.5231 1865.5661,-284.5231"/>
<polygon fill="#000000" stroke="#000000" points="1862.0662,-284.523 1865.5661,-294.5231 1869.0662,-284.5231 1862.0662,-284.523"/>
</g>
<!-- TimingInterceptor -->
<g id="node12" class="node">
<title>TimingInterceptor</title>
<ellipse fill="#fdb462" stroke="#000000" cx="1584" cy="-248" rx="81.6596" ry="18"/>
<text text-anchor="middle" x="1584" y="-243.8" font-family="Times,serif" font-size="14.00" fill="#000000">TimingInterceptor</text>
</g>
<!-- TimingInterceptor&#45;&gt;AppModule -->
<g id="edge11" class="edge">
<title>TimingInterceptor&#45;&gt;AppModule</title>
<path fill="none" stroke="#000000" d="M1584,-266.0091C1584,-282.0494 1584,-303 1584,-303 1584,-303 1825.3314,-303 1825.3314,-303"/>
<polygon fill="#000000" stroke="#000000" points="1825.3314,-306.5001 1835.3314,-303 1825.3314,-299.5001 1825.3314,-306.5001"/>
</g>
<!-- LoginPageComponent -->
<g id="node13" class="node">
<title>LoginPageComponent</title>
<polygon fill="#ffffb3" stroke="#000000" points="816.9874,-198 675.0126,-198 675.0126,-162 816.9874,-162 816.9874,-198"/>
<text text-anchor="middle" x="746" y="-175.8" font-family="Times,serif" font-size="14.00" fill="#000000">LoginPageComponent</text>
</g>
<!-- LoginPageComponent&#45;&gt;AuthModule -->
<g id="edge12" class="edge">
<title>LoginPageComponent&#45;&gt;AuthModule</title>
<path fill="none" stroke="#000000" d="M817.2511,-180C1070.6482,-180 1913.1113,-180 1913.1113,-180 1913.1113,-180 1913.1113,-248 1913.1113,-248 1913.1113,-248 1913.8188,-248 1913.8188,-248"/>
<polygon fill="#000000" stroke="#000000" points="1910.1872,-251.5002 1920.1871,-248 1910.1871,-244.5002 1910.1872,-251.5002"/>
</g>
<!-- RegisterPageComponent -->
<g id="node14" class="node">
<title>RegisterPageComponent</title>
<polygon fill="#ffffb3" stroke="#000000" points="656.6965,-198 501.3035,-198 501.3035,-162 656.6965,-162 656.6965,-198"/>
<text text-anchor="middle" x="579" y="-175.8" font-family="Times,serif" font-size="14.00" fill="#000000">RegisterPageComponent</text>
</g>
<!-- RegisterPageComponent&#45;&gt;AuthModule -->
<g id="edge13" class="edge">
<title>RegisterPageComponent&#45;&gt;AuthModule</title>
<path fill="none" stroke="#000000" d="M579,-198.2015C579,-204.028 579,-209 579,-209 579,-209 1964.0849,-209 1964.0849,-209 1964.0849,-209 1964.0849,-219.8701 1964.0849,-219.8701"/>
<polygon fill="#000000" stroke="#000000" points="1960.5849,-219.8701 1964.0849,-229.8701 1967.5849,-219.8701 1960.5849,-219.8701"/>
</g>
<!-- AuthRoutingModule -->
<g id="node15" class="node">
<title>AuthRoutingModule</title>
<polygon fill="#8dd3c7" stroke="#000000" points="477.1652,-198 474.1652,-202 453.1652,-202 450.1652,-198 344.8348,-198 344.8348,-162 477.1652,-162 477.1652,-198"/>
<text text-anchor="middle" x="411" y="-175.8" font-family="Times,serif" font-size="14.00" fill="#000000">AuthRoutingModule</text>
</g>
<!-- AuthRoutingModule&#45;&gt;AuthModule -->
<g id="edge14" class="edge">
<title>AuthRoutingModule&#45;&gt;AuthModule</title>
<path fill="none" stroke="#000000" d="M411,-198.1274C411,-208.7109 411,-220 411,-220 411,-220 1942.2405,-220 1942.2405,-220 1942.2405,-220 1942.2405,-220.9793 1942.2405,-220.9793"/>
<polygon fill="#000000" stroke="#000000" points="1938.7406,-219.793 1942.2405,-229.793 1945.7406,-219.7931 1938.7406,-219.793"/>
</g>
<!-- LangSwitchComponent -->
<g id="node16" class="node">
<title>LangSwitchComponent</title>
<polygon fill="#ffffb3" stroke="#000000" points="3141.4846,-198 2992.5154,-198 2992.5154,-162 3141.4846,-162 3141.4846,-198"/>
<text text-anchor="middle" x="3067" y="-175.8" font-family="Times,serif" font-size="14.00" fill="#000000">LangSwitchComponent</text>
</g>
<!-- LangSwitchComponent&#45;&gt;CoreModule -->
<g id="edge17" class="edge">
<title>LangSwitchComponent&#45;&gt;CoreModule</title>
<path fill="none" stroke="#000000" d="M3067,-161.9737C3067,-137.0227 3067,-95 3067,-95 3067,-95 2163.2928,-95 2163.2928,-95"/>
<polygon fill="#000000" stroke="#000000" points="2163.2928,-91.5001 2153.2928,-95 2163.2927,-98.5001 2163.2928,-91.5001"/>
</g>
<!-- HomeComponent -->
<g id="node18" class="node">
<title>HomeComponent</title>
<polygon fill="#ffffb3" stroke="#000000" points="2754.5451,-198 2639.4549,-198 2639.4549,-162 2754.5451,-162 2754.5451,-198"/>
<text text-anchor="middle" x="2697" y="-175.8" font-family="Times,serif" font-size="14.00" fill="#000000">HomeComponent</text>
</g>
<!-- HomeComponent&#45;&gt;HomeModule -->
<g id="edge19" class="edge">
<title>HomeComponent&#45;&gt;HomeModule</title>
<path fill="none" stroke="#000000" d="M2697,-198.2228C2697,-218.3652 2697,-248 2697,-248 2697,-248 2610.151,-248 2610.151,-248"/>
<polygon fill="#000000" stroke="#000000" points="2610.151,-244.5001 2600.151,-248 2610.151,-251.5001 2610.151,-244.5001"/>
</g>
<!-- SporkListComponent -->
<g id="node19" class="node">
<title>SporkListComponent</title>
<polygon fill="#ffffb3" stroke="#000000" points="2621.0547,-198 2484.9453,-198 2484.9453,-162 2621.0547,-162 2621.0547,-198"/>
<text text-anchor="middle" x="2553" y="-175.8" font-family="Times,serif" font-size="14.00" fill="#000000">SporkListComponent</text>
</g>
<!-- SporkListComponent&#45;&gt;HomeModule -->
<g id="edge20" class="edge">
<title>SporkListComponent&#45;&gt;HomeModule</title>
<path fill="none" stroke="#000000" d="M2553,-198.2228C2553,-198.2228 2553,-219.7269 2553,-219.7269"/>
<polygon fill="#000000" stroke="#000000" points="2549.5001,-219.7269 2553,-229.7269 2556.5001,-219.727 2549.5001,-219.7269"/>
</g>
<!-- HomeRoutingModule -->
<g id="node21" class="node">
<title>HomeRoutingModule</title>
<polygon fill="#8dd3c7" stroke="#000000" points="2461.3795,-198 2458.3795,-202 2437.3795,-202 2434.3795,-198 2322.6205,-198 2322.6205,-162 2461.3795,-162 2461.3795,-198"/>
<text text-anchor="middle" x="2392" y="-175.8" font-family="Times,serif" font-size="14.00" fill="#000000">HomeRoutingModule</text>
</g>
<!-- HomeRoutingModule&#45;&gt;HomeModule -->
<g id="edge22" class="edge">
<title>HomeRoutingModule&#45;&gt;HomeModule</title>
<path fill="none" stroke="#000000" d="M2392,-198.0225C2392,-215.3734 2392,-239 2392,-239 2392,-239 2495.9993,-239 2495.9993,-239"/>
<polygon fill="#000000" stroke="#000000" points="2495.9994,-242.5001 2505.9993,-239 2495.9993,-235.5001 2495.9994,-242.5001"/>
</g>
<!-- AuthLayoutComponent -->
<g id="node22" class="node">
<title>AuthLayoutComponent</title>
<polygon fill="#ffffb3" stroke="#000000" points="172.4874,-122 23.5126,-122 23.5126,-86 172.4874,-86 172.4874,-122"/>
<text text-anchor="middle" x="98" y="-99.8" font-family="Times,serif" font-size="14.00" fill="#000000">AuthLayoutComponent</text>
</g>
<!-- AuthLayoutComponent&#45;&gt;LayoutModule -->
<g id="edge24" class="edge">
<title>AuthLayoutComponent&#45;&gt;LayoutModule</title>
<path fill="none" stroke="#000000" d="M98,-122.0511C98,-136.373 98,-154 98,-154 98,-154 1940.2377,-154 1940.2377,-154 1940.2377,-154 1940.2377,-154.7942 1940.2377,-154.7942"/>
<polygon fill="#000000" stroke="#000000" points="1936.7379,-151.9421 1940.2377,-161.9421 1943.7379,-151.9422 1936.7379,-151.9421"/>
</g>
<!-- BackToLoginComponent -->
<g id="node23" class="node">
<title>BackToLoginComponent</title>
<polygon fill="#ffffb3" stroke="#000000" points="816.594,-122 657.406,-122 657.406,-86 816.594,-86 816.594,-122"/>
<text text-anchor="middle" x="737" y="-99.8" font-family="Times,serif" font-size="14.00" fill="#000000">BackToLoginComponent</text>
</g>
<!-- BackToLoginComponent&#45;&gt;LayoutModule -->
<g id="edge25" class="edge">
<title>BackToLoginComponent&#45;&gt;LayoutModule</title>
<path fill="none" stroke="#000000" d="M816.7371,-98C828.6139,-98 836.9668,-98 836.9668,-98 836.9668,-98 836.9668,-171 836.9668,-171 836.9668,-171 1910.2203,-171 1910.2203,-171"/>
<polygon fill="#000000" stroke="#000000" points="1910.2204,-174.5001 1920.2203,-171 1910.2203,-167.5001 1910.2204,-174.5001"/>
</g>
<!-- ErrorPageComponent -->
<g id="node24" class="node">
<title>ErrorPageComponent</title>
<polygon fill="#ffffb3" stroke="#000000" points="639.0786,-122 500.9214,-122 500.9214,-86 639.0786,-86 639.0786,-122"/>
<text text-anchor="middle" x="570" y="-99.8" font-family="Times,serif" font-size="14.00" fill="#000000">ErrorPageComponent</text>
</g>
<!-- ErrorPageComponent&#45;&gt;LayoutModule -->
<g id="edge26" class="edge">
<title>ErrorPageComponent&#45;&gt;LayoutModule</title>
<path fill="none" stroke="#000000" d="M570.2206,-122.0579C570.2206,-126.4945 570.2206,-130 570.2206,-130 570.2206,-130 1999.7623,-130 1999.7623,-130 1999.7623,-130 1999.7623,-151.9489 1999.7623,-151.9489"/>
<polygon fill="#000000" stroke="#000000" points="1996.2624,-151.9488 1999.7623,-161.9489 2003.2624,-151.9489 1996.2624,-151.9488"/>
</g>
<!-- MainLayoutComponent -->
<g id="node25" class="node">
<title>MainLayoutComponent</title>
<polygon fill="#ffffb3" stroke="#000000" points="483.0407,-122 332.9593,-122 332.9593,-86 483.0407,-86 483.0407,-122"/>
<text text-anchor="middle" x="408" y="-99.8" font-family="Times,serif" font-size="14.00" fill="#000000">MainLayoutComponent</text>
</g>
<!-- MainLayoutComponent&#45;&gt;LayoutModule -->
<g id="edge27" class="edge">
<title>MainLayoutComponent&#45;&gt;LayoutModule</title>
<path fill="none" stroke="#000000" d="M411,-122.1944C411,-130.2782 411,-138 411,-138 411,-138 1979.9208,-138 1979.9208,-138 1979.9208,-138 1979.9208,-151.9445 1979.9208,-151.9445"/>
<polygon fill="#000000" stroke="#000000" points="1976.4209,-151.9444 1979.9208,-161.9445 1983.4209,-151.9445 1976.4209,-151.9444"/>
</g>
<!-- TopnavComponent -->
<g id="node26" class="node">
<title>TopnavComponent</title>
<polygon fill="#ffffb3" stroke="#000000" points="315.0996,-122 190.9004,-122 190.9004,-86 315.0996,-86 315.0996,-122"/>
<text text-anchor="middle" x="253" y="-99.8" font-family="Times,serif" font-size="14.00" fill="#000000">TopnavComponent</text>
</g>
<!-- TopnavComponent&#45;&gt;LayoutModule -->
<g id="edge28" class="edge">
<title>TopnavComponent&#45;&gt;LayoutModule</title>
<path fill="none" stroke="#000000" d="M253,-122.0555C253,-133.439 253,-146 253,-146 253,-146 1960.0792,-146 1960.0792,-146 1960.0792,-146 1960.0792,-151.8056 1960.0792,-151.8056"/>
<polygon fill="#000000" stroke="#000000" points="1956.5793,-151.8055 1960.0792,-161.8056 1963.5793,-151.8056 1956.5793,-151.8055"/>
</g>
</g>
</svg>
