<?xml version="1.0" encoding="UTF-8" standalone="no"?>
<!DOCTYPE svg PUBLIC "-//W3C//DTD SVG 1.1//EN"
 "http://www.w3.org/Graphics/SVG/1.1/DTD/svg11.dtd">
<!-- Generated by graphviz version 2.40.1 (20161225.0304)
 -->
<!-- Title: dependencies Pages: 1 -->
<svg width="2430pt" height="428pt"
 viewBox="0.00 0.00 2430.00 428.00" xmlns="http://www.w3.org/2000/svg" xmlns:xlink="http://www.w3.org/1999/xlink">
<g id="graph0" class="graph" transform="scale(1 1) rotate(0) translate(4 424)">
<title>dependencies</title>
<polygon fill="#ffffff" stroke="transparent" points="-4,4 -4,-424 2426,-424 2426,4 -4,4"/>
<text text-anchor="start" x="1190.0091" y="-42.4" font-family="sans-serif" font-weight="bold" font-size="14.00" fill="#000000">Legend</text>
<polygon fill="#ffffb3" stroke="transparent" points="977,-10 977,-30 997,-30 997,-10 977,-10"/>
<text text-anchor="start" x="1000.629" y="-15.4" font-family="sans-serif" font-size="14.00" fill="#000000"> &#160;Declarations</text>
<polygon fill="#8dd3c7" stroke="transparent" points="1090,-10 1090,-30 1110,-30 1110,-10 1090,-10"/>
<text text-anchor="start" x="1113.7251" y="-15.4" font-family="sans-serif" font-size="14.00" fill="#000000"> &#160;Module</text>
<polygon fill="#80b1d3" stroke="transparent" points="1176,-10 1176,-30 1196,-30 1196,-10 1176,-10"/>
<text text-anchor="start" x="1199.7812" y="-15.4" font-family="sans-serif" font-size="14.00" fill="#000000"> &#160;Bootstrap</text>
<polygon fill="#fdb462" stroke="transparent" points="1273,-10 1273,-30 1293,-30 1293,-10 1273,-10"/>
<text text-anchor="start" x="1296.6732" y="-15.4" font-family="sans-serif" font-size="14.00" fill="#000000"> &#160;Providers</text>
<polygon fill="#fb8072" stroke="transparent" points="1369,-10 1369,-30 1389,-30 1389,-10 1369,-10"/>
<text text-anchor="start" x="1392.7258" y="-15.4" font-family="sans-serif" font-size="14.00" fill="#000000"> &#160;Exports</text>
<g id="clust1" class="cluster">
<title>cluster_AppModule</title>
<polygon fill="none" stroke="#000000" stroke-dasharray="1,5" points="8,-146 8,-412 1584,-412 1584,-146 8,-146"/>
</g>
<g id="clust2" class="cluster">
<title>cluster_AppModule_declarations</title>
<polygon fill="none" stroke="#000000" points="1454,-222 1454,-274 1576,-274 1576,-222 1454,-222"/>
</g>
<g id="clust4" class="cluster">
<title>cluster_AppModule_imports</title>
<polygon fill="none" stroke="#000000" points="1079,-154 1079,-274 1446,-274 1446,-154 1079,-154"/>
</g>
<g id="clust6" class="cluster">
<title>cluster_AppModule_bootstrap</title>
<polygon fill="none" stroke="#000000" points="979,-352 979,-404 1103,-404 1103,-352 979,-352"/>
</g>
<g id="clust7" class="cluster">
<title>cluster_AppModule_providers</title>
<polygon fill="none" stroke="#000000" points="16,-222 16,-274 1071,-274 1071,-222 16,-222"/>
</g>
<g id="clust14" class="cluster">
<title>cluster_AuthModule</title>
<polygon fill="none" stroke="#000000" stroke-dasharray="1,5" points="1592,-146 1592,-214 2096,-214 2096,-146 1592,-146"/>
</g>
<g id="clust15" class="cluster">
<title>cluster_AuthModule_declarations</title>
<polygon fill="none" stroke="#000000" points="1756,-154 1756,-206 2088,-206 2088,-154 1756,-154"/>
</g>
<g id="clust18" class="cluster">
<title>cluster_AuthModule_imports</title>
<polygon fill="none" stroke="#000000" points="1600,-154 1600,-206 1748,-206 1748,-154 1600,-154"/>
</g>
<g id="clust34" class="cluster">
<title>cluster_HomeModule</title>
<polygon fill="none" stroke="#000000" stroke-dasharray="1,5" points="2104,-70 2104,-206 2414,-206 2414,-70 2104,-70"/>
</g>
<g id="clust35" class="cluster">
<title>cluster_HomeModule_declarations</title>
<polygon fill="none" stroke="#000000" points="2274,-78 2274,-130 2406,-130 2406,-78 2274,-78"/>
</g>
<g id="clust37" class="cluster">
<title>cluster_HomeModule_imports</title>
<polygon fill="none" stroke="#000000" points="2112,-78 2112,-130 2266,-130 2266,-78 2112,-78"/>
</g>
<g id="clust47" class="cluster">
<title>cluster_LayoutModule</title>
<polygon fill="none" stroke="#000000" stroke-dasharray="1,5" points="1136,-70 1136,-138 1651,-138 1651,-70 1136,-70"/>
</g>
<g id="clust48" class="cluster">
<title>cluster_LayoutModule_declarations</title>
<polygon fill="none" stroke="#000000" points="1144,-78 1144,-130 1643,-130 1643,-78 1144,-78"/>
</g>
<!-- AppComponent -->
<g id="node1" class="node">
<title>AppComponent</title>
<polygon fill="#ffffb3" stroke="#000000" points="1567.9399,-266 1462.0601,-266 1462.0601,-230 1567.9399,-230 1567.9399,-266"/>
<text text-anchor="middle" x="1515" y="-243.8" font-family="Times,serif" font-size="14.00" fill="#000000">AppComponent</text>
</g>
<!-- AppModule -->
<g id="node2" class="node">
<title>AppModule</title>
<polygon fill="#8dd3c7" stroke="#000000" points="1082.6571,-331 1079.6571,-335 1058.6571,-335 1055.6571,-331 999.3429,-331 999.3429,-295 1082.6571,-295 1082.6571,-331"/>
<text text-anchor="middle" x="1041" y="-308.8" font-family="Times,serif" font-size="14.00" fill="#000000">AppModule</text>
</g>
<!-- AppComponent&#45;&gt;AppModule -->
<g id="edge1" class="edge">
<title>AppComponent&#45;&gt;AppModule</title>
<path fill="none" stroke="#000000" d="M1515,-266.0109C1515,-288.4852 1515,-324 1515,-324 1515,-324 1093.0643,-324 1093.0643,-324"/>
<polygon fill="#000000" stroke="#000000" points="1093.0644,-320.5001 1083.0643,-324 1093.0643,-327.5001 1093.0644,-320.5001"/>
</g>
<!-- AppComponent  -->
<g id="node7" class="node">
<title>AppComponent </title>
<polygon fill="#80b1d3" stroke="#000000" points="1095.439,-396 986.561,-396 986.561,-360 1095.439,-360 1095.439,-396"/>
<text text-anchor="middle" x="1041" y="-373.8" font-family="Times,serif" font-size="14.00" fill="#000000">AppComponent </text>
</g>
<!-- AppModule&#45;&gt;AppComponent  -->
<g id="edge6" class="edge">
<title>AppModule&#45;&gt;AppComponent </title>
<path fill="none" stroke="#000000" stroke-dasharray="1,5" d="M1041,-331.1061C1041,-331.1061 1041,-349.991 1041,-349.991"/>
<polygon fill="#000000" stroke="#000000" points="1037.5001,-349.9909 1041,-359.991 1044.5001,-349.991 1037.5001,-349.9909"/>
</g>
<!-- AppRoutingModule -->
<g id="node3" class="node">
<title>AppRoutingModule</title>
<polygon fill="#8dd3c7" stroke="#000000" points="1215.2744,-198 1212.2744,-202 1191.2744,-202 1188.2744,-198 1086.7256,-198 1086.7256,-162 1215.2744,-162 1215.2744,-198"/>
<text text-anchor="middle" x="1151" y="-175.8" font-family="Times,serif" font-size="14.00" fill="#000000">AppRoutingModule</text>
</g>
<!-- AppRoutingModule&#45;&gt;AppModule -->
<g id="edge2" class="edge">
<title>AppRoutingModule&#45;&gt;AppModule</title>
<path fill="none" stroke="#000000" d="M1091.0412,-198.1491C1091.0412,-232.3636 1091.0412,-303 1091.0412,-303 1091.0412,-303 1090.2149,-303 1090.2149,-303"/>
<polygon fill="#000000" stroke="#000000" points="1092.778,-299.5001 1082.7779,-303 1092.7779,-306.5001 1092.778,-299.5001"/>
</g>
<!-- AuthModule -->
<g id="node4" class="node">
<title>AuthModule</title>
<polygon fill="#8dd3c7" stroke="#000000" points="1437.5482,-266 1434.5482,-270 1413.5482,-270 1410.5482,-266 1350.4518,-266 1350.4518,-230 1437.5482,-230 1437.5482,-266"/>
<text text-anchor="middle" x="1394" y="-243.8" font-family="Times,serif" font-size="14.00" fill="#000000">AuthModule</text>
</g>
<!-- AuthModule&#45;&gt;AppModule -->
<g id="edge3" class="edge">
<title>AuthModule&#45;&gt;AppModule</title>
<path fill="none" stroke="#000000" d="M1350.3884,-248C1262.6492,-248 1073.1028,-248 1073.1028,-248 1073.1028,-248 1073.1028,-284.8939 1073.1028,-284.8939"/>
<polygon fill="#000000" stroke="#000000" points="1069.6029,-284.8938 1073.1028,-294.8939 1076.6029,-284.8939 1069.6029,-284.8938"/>
</g>
<!-- CoreModule -->
<g id="node5" class="node">
<title>CoreModule</title>
<polygon fill="#8dd3c7" stroke="#000000" points="1320.2619,-198 1317.2619,-202 1296.2619,-202 1293.2619,-198 1233.7381,-198 1233.7381,-162 1320.2619,-162 1320.2619,-198"/>
<text text-anchor="middle" x="1277" y="-175.8" font-family="Times,serif" font-size="14.00" fill="#000000">CoreModule</text>
</g>
<!-- CoreModule&#45;&gt;AppModule -->
<g id="edge4" class="edge">
<title>CoreModule&#45;&gt;AppModule</title>
<path fill="none" stroke="#000000" d="M1277,-198.0759C1277,-233.7964 1277,-310 1277,-310 1277,-310 1092.9201,-310 1092.9201,-310"/>
<polygon fill="#000000" stroke="#000000" points="1092.9202,-306.5001 1082.9201,-310 1092.9201,-313.5001 1092.9202,-306.5001"/>
</g>
<!-- LayoutModule -->
<g id="node6" class="node">
<title>LayoutModule</title>
<polygon fill="#8dd3c7" stroke="#000000" points="1437.7078,-198 1434.7078,-202 1413.7078,-202 1410.7078,-198 1338.2922,-198 1338.2922,-162 1437.7078,-162 1437.7078,-198"/>
<text text-anchor="middle" x="1388" y="-175.8" font-family="Times,serif" font-size="14.00" fill="#000000">LayoutModule</text>
</g>
<!-- LayoutModule&#45;&gt;AppModule -->
<g id="edge5" class="edge">
<title>LayoutModule&#45;&gt;AppModule</title>
<path fill="none" stroke="#000000" d="M1344.3114,-198.1925C1344.3114,-235.4592 1344.3114,-317 1344.3114,-317 1344.3114,-317 1092.8557,-317 1092.8557,-317"/>
<polygon fill="#000000" stroke="#000000" points="1092.8557,-313.5001 1082.8557,-317 1092.8557,-320.5001 1092.8557,-313.5001"/>
</g>
<!-- LayoutModule&#45;&gt;AuthModule -->
<g id="edge15" class="edge">
<title>LayoutModule&#45;&gt;AuthModule</title>
<path fill="none" stroke="#000000" d="M1372.0708,-198.2228C1372.0708,-198.2228 1372.0708,-219.7269 1372.0708,-219.7269"/>
<polygon fill="#000000" stroke="#000000" points="1368.5709,-219.7269 1372.0708,-229.7269 1375.5709,-219.727 1368.5709,-219.7269"/>
</g>
<!-- AuthTokenInterceptor -->
<g id="node8" class="node">
<title>AuthTokenInterceptor</title>
<ellipse fill="#fdb462" stroke="#000000" cx="966" cy="-248" rx="97.2548" ry="18"/>
<text text-anchor="middle" x="966" y="-243.8" font-family="Times,serif" font-size="14.00" fill="#000000">AuthTokenInterceptor</text>
</g>
<!-- AuthTokenInterceptor&#45;&gt;AppModule -->
<g id="edge7" class="edge">
<title>AuthTokenInterceptor&#45;&gt;AppModule</title>
<path fill="none" stroke="#000000" d="M1031.2746,-261.468C1031.2746,-261.468 1031.2746,-284.8642 1031.2746,-284.8642"/>
<polygon fill="#000000" stroke="#000000" points="1027.7747,-284.8641 1031.2746,-294.8642 1034.7747,-284.8642 1027.7747,-284.8641"/>
</g>
<!-- JsonHeaderInterceptor -->
<g id="node9" class="node">
<title>JsonHeaderInterceptor</title>
<ellipse fill="#fdb462" stroke="#000000" cx="752" cy="-248" rx="98.3734" ry="18"/>
<text text-anchor="middle" x="752" y="-243.8" font-family="Times,serif" font-size="14.00" fill="#000000">JsonHeaderInterceptor</text>
</g>
<!-- JsonHeaderInterceptor&#45;&gt;AppModule -->
<g id="edge8" class="edge">
<title>JsonHeaderInterceptor&#45;&gt;AppModule</title>
<path fill="none" stroke="#000000" d="M752,-266.0091C752,-282.0494 752,-303 752,-303 752,-303 989.2856,-303 989.2856,-303"/>
<polygon fill="#000000" stroke="#000000" points="989.2856,-306.5001 999.2856,-303 989.2855,-299.5001 989.2856,-306.5001"/>
</g>
<!-- LogRequestInterceptor -->
<g id="node10" class="node">
<title>LogRequestInterceptor</title>
<ellipse fill="#fdb462" stroke="#000000" cx="536" cy="-248" rx="100.1201" ry="18"/>
<text text-anchor="middle" x="536" y="-243.8" font-family="Times,serif" font-size="14.00" fill="#000000">LogRequestInterceptor</text>
</g>
<!-- LogRequestInterceptor&#45;&gt;AppModule -->
<g id="edge9" class="edge">
<title>LogRequestInterceptor&#45;&gt;AppModule</title>
<path fill="none" stroke="#000000" d="M536,-266.2667C536,-284.5552 536,-310 536,-310 536,-310 989.2441,-310 989.2441,-310"/>
<polygon fill="#000000" stroke="#000000" points="989.2441,-313.5001 999.2441,-310 989.2441,-306.5001 989.2441,-313.5001"/>
</g>
<!-- LogResponseInterceptor -->
<g id="node11" class="node">
<title>LogResponseInterceptor</title>
<ellipse fill="#fdb462" stroke="#000000" cx="312" cy="-248" rx="105.9208" ry="18"/>
<text text-anchor="middle" x="312" y="-243.8" font-family="Times,serif" font-size="14.00" fill="#000000">LogResponseInterceptor</text>
</g>
<!-- LogResponseInterceptor&#45;&gt;AppModule -->
<g id="edge10" class="edge">
<title>LogResponseInterceptor&#45;&gt;AppModule</title>
<path fill="none" stroke="#000000" d="M312,-266.1289C312,-286.5724 312,-317 312,-317 312,-317 989.1875,-317 989.1875,-317"/>
<polygon fill="#000000" stroke="#000000" points="989.1875,-320.5001 999.1875,-317 989.1874,-313.5001 989.1875,-320.5001"/>
</g>
<!-- TimingInterceptor -->
<g id="node12" class="node">
<title>TimingInterceptor</title>
<ellipse fill="#fdb462" stroke="#000000" cx="106" cy="-248" rx="81.6596" ry="18"/>
<text text-anchor="middle" x="106" y="-243.8" font-family="Times,serif" font-size="14.00" fill="#000000">TimingInterceptor</text>
</g>
<!-- TimingInterceptor&#45;&gt;AppModule -->
<g id="edge11" class="edge">
<title>TimingInterceptor&#45;&gt;AppModule</title>
<path fill="none" stroke="#000000" d="M106,-266.0109C106,-288.4852 106,-324 106,-324 106,-324 989.3137,-324 989.3137,-324"/>
<polygon fill="#000000" stroke="#000000" points="989.3137,-327.5001 999.3137,-324 989.3136,-320.5001 989.3137,-327.5001"/>
</g>
<!-- LoginPageComponent -->
<g id="node13" class="node">
<title>LoginPageComponent</title>
<polygon fill="#ffffb3" stroke="#000000" points="1905.9874,-198 1764.0126,-198 1764.0126,-162 1905.9874,-162 1905.9874,-198"/>
<text text-anchor="middle" x="1835" y="-175.8" font-family="Times,serif" font-size="14.00" fill="#000000">LoginPageComponent</text>
</g>
<!-- LoginPageComponent&#45;&gt;AuthModule -->
<g id="edge12" class="edge">
<title>LoginPageComponent&#45;&gt;AuthModule</title>
<path fill="none" stroke="#000000" d="M1835,-198.2015C1835,-204.028 1835,-209 1835,-209 1835,-209 1393.9152,-209 1393.9152,-209 1393.9152,-209 1393.9152,-219.8701 1393.9152,-219.8701"/>
<polygon fill="#000000" stroke="#000000" points="1390.4152,-219.8701 1393.9152,-229.8701 1397.4152,-219.8701 1390.4152,-219.8701"/>
</g>
<!-- RegisterPageComponent -->
<g id="node14" class="node">
<title>RegisterPageComponent</title>
<polygon fill="#ffffb3" stroke="#000000" points="2079.6965,-198 1924.3035,-198 1924.3035,-162 2079.6965,-162 2079.6965,-198"/>
<text text-anchor="middle" x="2002" y="-175.8" font-family="Times,serif" font-size="14.00" fill="#000000">RegisterPageComponent</text>
</g>
<!-- RegisterPageComponent&#45;&gt;AuthModule -->
<g id="edge13" class="edge">
<title>RegisterPageComponent&#45;&gt;AuthModule</title>
<path fill="none" stroke="#000000" d="M2002,-198.1274C2002,-208.7109 2002,-220 2002,-220 2002,-220 1415.7595,-220 1415.7595,-220 1415.7595,-220 1415.7595,-220.9793 1415.7595,-220.9793"/>
<polygon fill="#000000" stroke="#000000" points="1412.2596,-219.793 1415.7595,-229.793 1419.2596,-219.7931 1412.2596,-219.793"/>
</g>
<!-- AuthRoutingModule -->
<g id="node15" class="node">
<title>AuthRoutingModule</title>
<polygon fill="#8dd3c7" stroke="#000000" points="1740.1652,-198 1737.1652,-202 1716.1652,-202 1713.1652,-198 1607.8348,-198 1607.8348,-162 1740.1652,-162 1740.1652,-198"/>
<text text-anchor="middle" x="1674" y="-175.8" font-family="Times,serif" font-size="14.00" fill="#000000">AuthRoutingModule</text>
</g>
<!-- AuthRoutingModule&#45;&gt;AuthModule -->
<g id="edge14" class="edge">
<title>AuthRoutingModule&#45;&gt;AuthModule</title>
<path fill="none" stroke="#000000" d="M1607.5455,-186C1540.6842,-186 1447.4064,-186 1447.4064,-186 1447.4064,-186 1447.4064,-248 1447.4064,-248 1447.4064,-248 1446.4268,-248 1446.4268,-248"/>
<polygon fill="#000000" stroke="#000000" points="1447.6109,-244.5001 1437.6108,-248 1447.6108,-251.5001 1447.6109,-244.5001"/>
</g>
<!-- HomeComponent -->
<g id="node16" class="node">
<title>HomeComponent</title>
<polygon fill="#ffffb3" stroke="#000000" points="2397.5451,-122 2282.4549,-122 2282.4549,-86 2397.5451,-86 2397.5451,-122"/>
<text text-anchor="middle" x="2340" y="-99.8" font-family="Times,serif" font-size="14.00" fill="#000000">HomeComponent</text>
</g>
<!-- HomeModule -->
<g id="node17" class="node">
<title>HomeModule</title>
<polygon fill="#8dd3c7" stroke="#000000" points="2310.7619,-198 2307.7619,-202 2286.7619,-202 2283.7619,-198 2217.2381,-198 2217.2381,-162 2310.7619,-162 2310.7619,-198"/>
<text text-anchor="middle" x="2264" y="-175.8" font-family="Times,serif" font-size="14.00" fill="#000000">HomeModule</text>
</g>
<!-- HomeComponent&#45;&gt;HomeModule -->
<g id="edge16" class="edge">
<title>HomeComponent&#45;&gt;HomeModule</title>
<path fill="none" stroke="#000000" d="M2296.5544,-122.0109C2296.5544,-122.0109 2296.5544,-151.855 2296.5544,-151.855"/>
<polygon fill="#000000" stroke="#000000" points="2293.0544,-151.8549 2296.5544,-161.855 2300.0544,-151.855 2293.0544,-151.8549"/>
</g>
<!-- HomeRoutingModule -->
<g id="node18" class="node">
<title>HomeRoutingModule</title>
<polygon fill="#8dd3c7" stroke="#000000" points="2258.3795,-122 2255.3795,-126 2234.3795,-126 2231.3795,-122 2119.6205,-122 2119.6205,-86 2258.3795,-86 2258.3795,-122"/>
<text text-anchor="middle" x="2189" y="-99.8" font-family="Times,serif" font-size="14.00" fill="#000000">HomeRoutingModule</text>
</g>
<!-- HomeRoutingModule&#45;&gt;HomeModule -->
<g id="edge17" class="edge">
<title>HomeRoutingModule&#45;&gt;HomeModule</title>
<path fill="none" stroke="#000000" d="M2237.7795,-122.0109C2237.7795,-122.0109 2237.7795,-151.855 2237.7795,-151.855"/>
<polygon fill="#000000" stroke="#000000" points="2234.2795,-151.8549 2237.7795,-161.855 2241.2795,-151.855 2234.2795,-151.8549"/>
</g>
<!-- AuthLayoutComponent -->
<g id="node19" class="node">
<title>AuthLayoutComponent</title>
<polygon fill="#ffffb3" stroke="#000000" points="1300.4874,-122 1151.5126,-122 1151.5126,-86 1300.4874,-86 1300.4874,-122"/>
<text text-anchor="middle" x="1226" y="-99.8" font-family="Times,serif" font-size="14.00" fill="#000000">AuthLayoutComponent</text>
</g>
<!-- AuthLayoutComponent&#45;&gt;LayoutModule -->
<g id="edge18" class="edge">
<title>AuthLayoutComponent&#45;&gt;LayoutModule</title>
<path fill="none" stroke="#000000" d="M1267.0565,-122.1097C1267.0565,-131.897 1267.0565,-142 1267.0565,-142 1267.0565,-142 1371.4654,-142 1371.4654,-142 1371.4654,-142 1371.4654,-151.8903 1371.4654,-151.8903"/>
<polygon fill="#000000" stroke="#000000" points="1367.9655,-151.8903 1371.4654,-161.8903 1374.9655,-151.8904 1367.9655,-151.8903"/>
</g>
<!-- BackToLoginComponent -->
<g id="node20" class="node">
<title>BackToLoginComponent</title>
<polygon fill="#ffffb3" stroke="#000000" points="1634.594,-122 1475.406,-122 1475.406,-86 1634.594,-86 1634.594,-122"/>
<text text-anchor="middle" x="1555" y="-99.8" font-family="Times,serif" font-size="14.00" fill="#000000">BackToLoginComponent</text>
</g>
<!-- BackToLoginComponent&#45;&gt;LayoutModule -->
<g id="edge19" class="edge">
<title>BackToLoginComponent&#45;&gt;LayoutModule</title>
<path fill="none" stroke="#000000" d="M1521.5862,-122.0267C1521.5862,-142.7672 1521.5862,-174 1521.5862,-174 1521.5862,-174 1447.7426,-174 1447.7426,-174"/>
<polygon fill="#000000" stroke="#000000" points="1447.7426,-170.5001 1437.7426,-174 1447.7426,-177.5001 1447.7426,-170.5001"/>
</g>
<!-- ErrorPageComponent -->
<g id="node21" class="node">
<title>ErrorPageComponent</title>
<polygon fill="#ffffb3" stroke="#000000" points="1457.0786,-122 1318.9214,-122 1318.9214,-86 1457.0786,-86 1457.0786,-122"/>
<text text-anchor="middle" x="1388" y="-99.8" font-family="Times,serif" font-size="14.00" fill="#000000">ErrorPageComponent</text>
</g>
<!-- ErrorPageComponent&#45;&gt;LayoutModule -->
<g id="edge20" class="edge">
<title>ErrorPageComponent&#45;&gt;LayoutModule</title>
<path fill="none" stroke="#000000" d="M1404.5346,-122.0109C1404.5346,-122.0109 1404.5346,-151.855 1404.5346,-151.855"/>
<polygon fill="#000000" stroke="#000000" points="1401.0347,-151.8549 1404.5346,-161.855 1408.0347,-151.855 1401.0347,-151.8549"/>
</g>
</g>
</svg>
